# xmcd
#
# Track frame offsets: 
#        150
#        12009
#        23397
#        34499
#        45508
#        56483
#        68812
#        85944
#        103665
#        114064
#        127976
#        143108
#        156498
#        170504
#
# Disc length: 2441 seconds
#
# Revision: 1
# Processed by: cddbd v1.5.2PL0 Copyright (c) Steve Scherf et al.
# Submitted via: ExactAudioCopyFreeDBPlugin 1.0
#
DISCID=ab09870e
DTITLE=Eve And The Exiles - Eve Monsees And The Exiles
DYEAR=2004
DGENRE=Blues
TTITLE0=Surprise Surprise
TTITLE1=Ooh Wee Sugar
TTITLE2=Needles And Pins (With Charlie Sexton On 12-String)
TTITLE3=I Had A Dream
TTITLE4=Rock In My Shoe
TTITLE5=Never Let You Go
TTITLE6=From Now On
TTITLE7=Lonely, Lonely Nights
TTITLE8=Thing For You
TTITLE9=Lickin' Stick (Feturing Jennifer Monsees On Vocals)
TTITLE10=Don't Ever Say Goodbye
TTITLE11=Stupid Girl
TTITLE12=Everything's Gonna Be Alright
TTITLE13=Deed And Deed I Do
EXTD=Recorded in mono
EXTT0=
EXTT1=
EXTT2=
EXTT3=
EXTT4=
EXTT5=
EXTT6=
EXTT7=
EXTT8=
EXTT9=
EXTT10=
EXTT11=
EXTT12=
EXTT13=
PLAYORDER=
